<?xml version="1.0" encoding="UTF-8" standalone="no"?>
<!DOCTYPE svg PUBLIC "-//W3C//DTD SVG 1.1//EN" "http://www.w3.org/Graphics/SVG/1.1/DTD/svg11.dtd">
<!-- Created with Vectornator (http://vectornator.io/) -->
<svg height="100%" stroke-miterlimit="10" style="fill-rule:nonzero;clip-rule:evenodd;stroke-linecap:round;stroke-linejoin:round;" version="1.1" viewBox="0 0 3481.37 399.269" width="100%" xml:space="preserve" xmlns="http://www.w3.org/2000/svg" xmlns:vectornator="http://vectornator.io" xmlns:xlink="http://www.w3.org/1999/xlink">
<defs>
<clipPath id="TextBounds">
<rect height="352.893" width="3367.29" x="34.2294" y="80.5779"/>
</clipPath>
</defs>
<g id="Layer-1" vectornator:layerName="Layer 1">
<g fill="#a873ff" opacity="1" stroke="none">
<path clip-path="url(#TextBounds)" d="M167.795 148.484L169.748 150.672C161.78 156.505 157.795 162.807 157.795 169.578C157.795 175.359 160.946 180.307 167.248 184.422L156.233 195.359C149.878 190.62 146.701 184.995 146.701 178.484C146.701 169.265 153.733 159.265 167.795 148.484ZM139.983 148.484L141.936 150.672C133.967 156.505 129.983 162.807 129.983 169.578C129.983 175.359 133.108 180.307 139.358 184.422L128.42 195.359C122.066 190.62 118.889 184.995 118.889 178.484C118.889 169.265 125.92 159.265 139.983 148.484Z" fill-rule="evenodd"/>
<path clip-path="url(#TextBounds)" d="M192.561 198.953L179.826 211.14C178.628 207.078 178.03 203.041 178.03 199.031C178.03 185.594 183.03 174.812 193.03 166.687C203.03 158.562 216.311 154.5 232.873 154.5L239.045 154.5C236.701 166.427 235.295 174.448 234.826 178.562L230.608 216.765L229.592 225.437C228.707 232.833 227.105 238.172 224.787 241.453C222.47 244.734 218.03 247.937 211.467 251.062L234.123 252.234L224.748 261.297L186.701 259.578L196.701 249.89L205.217 250.828C211.571 246.817 215.477 238.614 216.936 226.219L217.795 218.64L223.811 163.953L221.389 163.953C199.722 163.953 188.889 171.114 188.889 185.437C188.889 189.916 190.113 194.422 192.561 198.953Z" fill-rule="evenodd"/>
<path clip-path="url(#TextBounds)" d="M348.811 186.844L339.905 197.547C335.738 195.828 331.753 194.969 327.951 194.969C321.128 194.969 315.751 197.859 311.819 203.64C307.886 209.422 305.92 217.338 305.92 227.39C305.92 234.474 307.339 240.177 310.178 244.5C313.017 248.823 316.727 250.984 321.311 250.984C329.071 250.984 335.165 245.906 339.592 235.75C340.738 237 341.311 238.172 341.311 239.265C341.311 243.588 337.938 248.393 331.194 253.679C324.449 258.966 318.264 261.609 312.639 261.609C307.222 261.609 302.782 259.435 299.319 255.086C295.855 250.737 294.123 245.099 294.123 238.172C294.123 224.682 298.707 212.416 307.873 201.375C317.04 190.333 327.222 184.812 338.42 184.812C342.483 184.812 345.946 185.489 348.811 186.844Z" fill-rule="evenodd"/>
<path clip-path="url(#TextBounds)" d="M381.155 217.703C392.717 195.776 404.097 184.812 415.295 184.812C418.212 184.812 421.128 185.489 424.045 186.844L413.03 198.875C411.363 197.937 409.227 197.469 406.623 197.469C401.207 197.469 395.49 201.857 389.475 210.633C383.459 219.409 379.931 228.536 378.889 238.015L376.78 257.078L365.217 260.984L365.451 258.64L365.998 253.562L366.623 248.484L370.686 211.297L371.155 207.234C371.519 204.161 371.701 201.661 371.701 199.734C371.701 196.557 370.816 194.969 369.045 194.969C364.878 194.969 360.738 199.422 356.623 208.328C355.321 207.338 354.696 206.323 354.748 205.281C354.905 202.104 357.808 197.898 363.459 192.664C369.11 187.429 373.576 184.812 376.858 184.812C381.285 184.812 383.498 187.729 383.498 193.562C383.498 194.969 383.368 196.87 383.108 199.265L382.561 204.734L381.858 211.297L381.155 217.703Z" fill-rule="evenodd"/>
<path clip-path="url(#TextBounds)" d="M468.498 228.562C462.613 238.25 456.142 246.179 449.084 252.351C442.027 258.523 435.894 261.609 430.686 261.609C423.55 261.609 419.983 255.854 419.983 244.344C419.983 228.51 425.178 214.799 435.569 203.211C445.959 191.622 458.264 185.828 472.483 185.828C477.899 185.828 482.509 186.505 486.311 187.859C486.05 188.797 485.894 189.37 485.842 189.578L484.905 193.719C484.28 196.583 483.941 198.25 483.889 198.719L478.889 233.25L478.186 238.25C477.509 243.198 477.17 246.505 477.17 248.172C477.17 250.411 477.821 251.531 479.123 251.531C483.498 251.531 487.977 246.635 492.561 236.844C493.967 237.677 494.67 238.51 494.67 239.344C494.67 241.166 492.431 244.838 487.951 250.359C481.858 257.859 476.207 261.609 470.998 261.609C467.196 261.609 465.295 259.057 465.295 253.953C465.295 252.39 465.477 250.229 465.842 247.469L466.623 241.219L467.639 234.344L468.498 228.562ZM472.951 197.547C468.212 194.89 463.42 193.562 458.576 193.562C451.285 193.562 445.165 198.015 440.217 206.922C435.269 215.828 432.795 226.87 432.795 240.047C432.795 246.817 434.8 250.203 438.811 250.203C443.446 250.203 449.045 246.661 455.608 239.578C464.462 230.047 469.826 218.849 471.701 205.984L472.951 197.547Z" fill-rule="evenodd"/>
<path clip-path="url(#TextBounds)" d="M526.78 195.906L520.451 259.109C519.045 273.432 516.871 284.344 513.928 291.844C510.985 299.344 506.233 306.088 499.67 312.078C490.035 320.88 479.227 325.281 467.248 325.281C464.852 325.281 461.78 324.63 458.03 323.328L468.42 313.797C472.847 315.255 476.858 315.984 480.451 315.984C495.816 315.984 504.696 304.344 507.092 281.062L509.123 261.687L515.686 195.906L501.545 195.906L510.451 186.844L516.623 186.844L517.092 182.312C518.967 163.041 524.514 148.028 533.733 137.273C542.951 126.518 554.852 121.14 569.436 121.14C572.196 121.14 575.295 121.401 578.733 121.922L567.795 132.703C563.889 131.192 560.061 130.437 556.311 130.437C547.352 130.437 540.972 133.536 537.17 139.734C533.368 145.932 530.608 157.807 528.889 175.359L527.717 186.844L559.358 186.844L550.061 195.906L526.78 195.906Z" fill-rule="evenodd"/>
<path clip-path="url(#TextBounds)" d="M576.467 195.906L572.561 230.437C571.884 236.635 571.545 241.219 571.545 244.187C571.545 250.073 573.55 253.015 577.561 253.015C581.884 253.015 586.363 249.474 590.998 242.39C591.78 243.38 592.17 244.265 592.17 245.047C592.17 247.963 589.605 251.453 584.475 255.515C579.345 259.578 574.931 261.609 571.233 261.609C563.837 261.609 560.139 256.87 560.139 247.39C560.139 243.901 560.582 238.25 561.467 230.437L565.295 195.906L548.811 195.906L557.951 186.844L566.311 186.844L567.951 172.625L579.436 168.797L577.483 186.844L610.608 186.844L601.467 195.906L576.467 195.906Z" fill-rule="evenodd"/>
<path clip-path="url(#TextBounds)" d="M705.295 185.984L706.076 179.265C707.951 162.599 713.642 148.745 723.147 137.703C732.652 126.661 743.602 121.14 755.998 121.14C758.967 121.14 761.519 121.401 763.655 121.922L752.561 133.25C750.113 132.416 747.222 132 743.889 132C736.076 132 730.243 134.734 726.389 140.203C722.535 145.672 719.878 154.995 718.42 168.172L711.155 233.25L710.608 238.25C710.139 242.677 709.905 245.828 709.905 247.703C709.905 250.255 710.582 251.531 711.936 251.531C716.259 251.531 720.608 246.635 724.983 236.844C726.389 237.677 727.092 238.51 727.092 239.344C727.092 241.219 724.983 244.89 720.764 250.359C714.878 257.859 709.358 261.609 704.201 261.609C700.191 261.609 698.186 258.849 698.186 253.328C698.186 251.297 698.498 247.26 699.123 241.219L699.905 234.344L700.53 228.562C696.988 236.375 691.246 243.836 683.303 250.945C675.36 258.054 668.811 261.609 663.655 261.609C656.311 261.609 652.639 255.854 652.639 244.344C652.639 229.291 657.717 215.776 667.873 203.797C678.03 191.817 689.488 185.828 702.248 185.828C702.873 185.828 703.889 185.88 705.295 185.984ZM704.045 197.156C699.67 194.76 695.66 193.562 692.014 193.562C684.306 193.562 677.951 197.937 672.951 206.687C667.951 215.437 665.451 226.557 665.451 240.047C665.451 246.817 667.431 250.203 671.389 250.203C676.181 250.203 681.806 246.661 688.264 239.578C696.649 230.463 701.597 219.265 703.108 205.984L704.045 197.156Z" fill-rule="evenodd"/>
<path clip-path="url(#TextBounds)" d="M773.03 236.844C774.436 237.677 775.139 238.484 775.139 239.265C775.139 241.14 772.873 244.838 768.342 250.359C762.248 257.859 756.597 261.609 751.389 261.609C747.587 261.609 745.686 259.083 745.686 254.031C745.686 251.896 746.467 245.333 748.03 234.344L751.076 213.094L751.858 207.703L752.483 203.406C752.743 201.583 752.873 200.047 752.873 198.797C752.873 196.192 752.144 194.89 750.686 194.89C746.623 194.89 742.248 199.37 737.561 208.328C736.571 207.442 736.076 206.557 736.076 205.672C736.076 202.495 739.006 198.224 744.865 192.859C750.725 187.495 755.399 184.812 758.889 184.812C762.795 184.812 764.748 187.521 764.748 192.937C764.748 193.979 764.54 196.114 764.123 199.344L763.42 204.578C763.368 204.995 763.082 207.104 762.561 210.906L759.358 233.25L758.576 238.25C757.899 243.198 757.561 246.505 757.561 248.172C757.561 250.411 758.212 251.531 759.514 251.531C763.889 251.531 768.394 246.635 773.03 236.844ZM757.326 174.734L763.889 158.562C769.722 156.166 774.514 152.859 778.264 148.64C778.785 149.37 779.045 150.125 779.045 150.906C779.045 157.885 771.806 165.828 757.326 174.734Z" fill-rule="evenodd"/>
<path clip-path="url(#TextBounds)" d="M834.045 197.547C830.295 194.89 825.582 193.562 819.905 193.562C812.769 193.562 806.74 198.041 801.819 207C796.897 215.958 794.436 226.974 794.436 240.047C794.436 246.817 796.441 250.203 800.451 250.203C805.035 250.203 810.634 246.661 817.248 239.578C826.415 229.734 831.675 218.588 833.03 206.14L834.045 197.547ZM847.405 187.859C847.144 188.797 846.988 189.37 846.936 189.578L846.076 193.719C845.399 196.739 845.035 198.406 844.983 198.719L841.858 227.312C841.337 232.104 840.79 240.515 840.217 252.547C839.488 267.599 838.056 278.745 835.92 285.984C833.785 293.224 830.009 299.682 824.592 305.359C812.196 318.432 798.993 324.969 784.983 324.969C778.212 324.969 772.587 322.677 768.108 318.094C763.628 313.51 761.389 307.781 761.389 300.906C761.389 286.896 769.957 273.067 787.092 259.422C783.446 256.557 781.623 251.505 781.623 244.265C781.623 228.536 786.806 214.864 797.17 203.25C807.535 191.635 819.774 185.828 833.889 185.828C839.878 185.828 844.384 186.505 847.405 187.859ZM830.53 228.875C816.467 250.333 803.733 261.062 792.326 261.062C791.858 261.062 791.024 261.01 789.826 260.906C777.743 273.094 771.701 283.953 771.701 293.484C771.701 299.995 774.006 305.45 778.615 309.851C783.225 314.252 788.941 316.453 795.764 316.453C806.285 316.453 814.358 311.817 819.983 302.547C824.253 295.411 827.222 278.406 828.889 251.531C829.514 241.375 830.061 233.823 830.53 228.875Z" fill-rule="evenodd"/>
<path clip-path="url(#TextBounds)" d="M894.983 236.844C896.389 237.677 897.092 238.484 897.092 239.265C897.092 241.14 894.826 244.838 890.295 250.359C884.201 257.859 878.55 261.609 873.342 261.609C869.54 261.609 867.639 259.083 867.639 254.031C867.639 251.896 868.42 245.333 869.983 234.344L873.03 213.094L873.811 207.703L874.436 203.406C874.696 201.583 874.826 200.047 874.826 198.797C874.826 196.192 874.097 194.89 872.639 194.89C868.576 194.89 864.201 199.37 859.514 208.328C858.524 207.442 858.03 206.557 858.03 205.672C858.03 202.495 860.959 198.224 866.819 192.859C872.678 187.495 877.352 184.812 880.842 184.812C884.748 184.812 886.701 187.521 886.701 192.937C886.701 193.979 886.493 196.114 886.076 199.344L885.373 204.578C885.321 204.995 885.035 207.104 884.514 210.906L881.311 233.25L880.53 238.25C879.852 243.198 879.514 246.505 879.514 248.172C879.514 250.411 880.165 251.531 881.467 251.531C885.842 251.531 890.347 246.635 894.983 236.844ZM879.28 174.734L885.842 158.562C891.675 156.166 896.467 152.859 900.217 148.64C900.738 149.37 900.998 150.125 900.998 150.906C900.998 157.885 893.759 165.828 879.28 174.734Z" fill-rule="evenodd"/>
<path clip-path="url(#TextBounds)" d="M928.967 195.906L925.061 230.437C924.384 236.635 924.045 241.219 924.045 244.187C924.045 250.073 926.05 253.015 930.061 253.015C934.384 253.015 938.863 249.474 943.498 242.39C944.28 243.38 944.67 244.265 944.67 245.047C944.67 247.963 942.105 251.453 936.975 255.515C931.845 259.578 927.431 261.609 923.733 261.609C916.337 261.609 912.639 256.87 912.639 247.39C912.639 243.901 913.082 238.25 913.967 230.437L917.795 195.906L901.311 195.906L910.451 186.844L918.811 186.844L920.451 172.625L931.936 168.797L929.983 186.844L963.108 186.844L953.967 195.906L928.967 195.906Z" fill-rule="evenodd"/>
<path clip-path="url(#TextBounds)" d="M1008.5 228.562C1002.61 238.25 996.142 246.179 989.084 252.351C982.027 258.523 975.894 261.609 970.686 261.609C963.55 261.609 959.983 255.854 959.983 244.344C959.983 228.51 965.178 214.799 975.569 203.211C985.959 191.622 998.264 185.828 1012.48 185.828C1017.9 185.828 1022.51 186.505 1026.31 187.859C1026.05 188.797 1025.89 189.37 1025.84 189.578L1024.9 193.719C1024.28 196.583 1023.94 198.25 1023.89 198.719L1018.89 233.25L1018.19 238.25C1017.51 243.198 1017.17 246.505 1017.17 248.172C1017.17 250.411 1017.82 251.531 1019.12 251.531C1023.5 251.531 1027.98 246.635 1032.56 236.844C1033.97 237.677 1034.67 238.51 1034.67 239.344C1034.67 241.166 1032.43 244.838 1027.95 250.359C1021.86 257.859 1016.21 261.609 1011 261.609C1007.2 261.609 1005.3 259.057 1005.3 253.953C1005.3 252.39 1005.48 250.229 1005.84 247.469L1006.62 241.219L1007.64 234.344L1008.5 228.562ZM1012.95 197.547C1008.21 194.89 1003.42 193.562 998.576 193.562C991.285 193.562 985.165 198.015 980.217 206.922C975.269 215.828 972.795 226.87 972.795 240.047C972.795 246.817 974.8 250.203 978.811 250.203C983.446 250.203 989.045 246.661 995.608 239.578C1004.46 230.047 1009.83 218.849 1011.7 205.984L1012.95 197.547Z" fill-rule="evenodd"/>
<path clip-path="url(#TextBounds)" d="M1073.73 236.609C1075.24 237.338 1076 238.276 1076 239.422C1076 243.172 1073.2 247.807 1067.6 253.328C1062 258.849 1057.3 261.609 1053.5 261.609C1049.18 261.609 1047.01 258.484 1047.01 252.234C1047.01 248.432 1047.25 244.552 1047.72 240.594L1048.58 233.64L1054.59 179.265C1056.47 162.703 1062.16 148.875 1071.66 137.781C1081.17 126.687 1092.12 121.14 1104.51 121.14C1107.53 121.14 1110.09 121.401 1112.17 121.922L1101.08 133.25C1098.63 132.416 1095.76 132 1092.48 132C1084.67 132 1078.82 134.747 1074.94 140.242C1071.06 145.737 1068.39 155.047 1066.94 168.172L1059.67 233.64C1059.1 238.692 1058.81 242.312 1058.81 244.5C1058.81 249.187 1059.62 251.531 1061.23 251.531C1063.16 251.531 1065.43 249.982 1068.03 246.883C1070.63 243.784 1072.53 240.359 1073.73 236.609Z" fill-rule="evenodd"/>
<path clip-path="url(#TextBounds)" d="M1124.2 257.39L1134.98 248.562C1139.05 252.885 1144.15 255.047 1150.3 255.047C1157.8 255.047 1161.55 251.427 1161.55 244.187C1161.55 240.177 1158.11 234.578 1151.23 227.39L1146.78 222.781C1140.27 215.958 1137.01 210.437 1137.01 206.219C1137.01 200.177 1139.63 195.099 1144.87 190.984C1150.1 186.87 1156.55 184.812 1164.2 184.812C1168.37 184.812 1172.93 185.594 1177.87 187.156L1168.5 195.828C1164.54 192.859 1160.14 191.375 1155.3 191.375C1149.62 191.375 1146.78 193.745 1146.78 198.484C1146.78 201.87 1149.93 206.844 1156.23 213.406L1161.08 218.562C1168.26 226.062 1171.86 232.104 1171.86 236.687C1171.86 243.25 1168.71 249.044 1162.4 254.07C1156.1 259.096 1148.84 261.609 1140.61 261.609C1134.77 261.609 1129.31 260.203 1124.2 257.39Z" fill-rule="evenodd"/>
<path clip-path="url(#TextBounds)" d="M1203.34 261.609C1191.62 261.609 1185.76 253.849 1185.76 238.328C1185.76 225.828 1190.35 213.784 1199.51 202.195C1208.68 190.607 1218.19 184.812 1228.03 184.812C1239.9 184.812 1245.84 192.573 1245.84 208.094C1245.84 220.646 1241.26 232.703 1232.09 244.265C1222.93 255.828 1213.34 261.609 1203.34 261.609ZM1212.8 252.859C1218.78 252.859 1223.8 249.526 1227.83 242.859C1231.87 236.192 1233.89 227.885 1233.89 217.937C1233.89 201.687 1228.84 193.562 1218.73 193.562C1212.8 193.562 1207.81 196.909 1203.77 203.601C1199.74 210.294 1197.72 218.588 1197.72 228.484C1197.72 244.734 1202.74 252.859 1212.8 252.859Z" fill-rule="evenodd"/>
<path clip-path="url(#TextBounds)" d="M1286.31 236.609C1287.82 237.338 1288.58 238.276 1288.58 239.422C1288.58 243.172 1285.78 247.807 1280.18 253.328C1274.58 258.849 1269.88 261.609 1266.08 261.609C1261.75 261.609 1259.59 258.484 1259.59 252.234C1259.59 248.432 1259.83 244.552 1260.3 240.594L1261.15 233.64L1267.17 179.265C1269.05 162.703 1274.74 148.875 1284.24 137.781C1293.75 126.687 1304.7 121.14 1317.09 121.14C1320.11 121.14 1322.66 121.401 1324.75 121.922L1313.65 133.25C1311.21 132.416 1308.34 132 1305.06 132C1297.25 132 1291.4 134.747 1287.52 140.242C1283.64 145.737 1280.97 155.047 1279.51 168.172L1272.25 233.64C1271.68 238.692 1271.39 242.312 1271.39 244.5C1271.39 249.187 1272.2 251.531 1273.81 251.531C1275.74 251.531 1278 249.982 1280.61 246.883C1283.21 243.784 1285.11 240.359 1286.31 236.609Z" fill-rule="evenodd"/>
<path clip-path="url(#TextBounds)" d="M1353.81 228.875C1347.87 237.989 1341.18 245.724 1333.73 252.078C1326.28 258.432 1320.22 261.609 1315.53 261.609C1310.37 261.609 1307.8 258.172 1307.8 251.297C1307.8 248.745 1308.13 244.552 1308.81 238.719L1311.62 213.094C1311.68 212.729 1311.81 211.219 1312.01 208.562L1312.48 203.484C1312.64 201.974 1312.72 200.62 1312.72 199.422C1312.72 196.401 1311.86 194.89 1310.14 194.89C1306.18 194.89 1301.91 199.344 1297.33 208.25C1296.34 207.469 1295.84 206.635 1295.84 205.75C1295.84 202.521 1298.72 198.224 1304.47 192.859C1310.23 187.495 1314.8 184.812 1318.19 184.812C1322.51 184.812 1324.67 187.781 1324.67 193.719C1324.67 195.125 1324.57 196.765 1324.36 198.64L1323.65 204.656L1322.95 211.219L1320.45 233.562C1320.03 237.364 1319.83 241.219 1319.83 245.125C1319.83 248.719 1321.15 250.515 1323.81 250.515C1329.7 250.515 1336.35 245.672 1343.77 235.984C1351.19 226.297 1355.58 216.713 1356.94 207.234L1359.59 188.719L1372.25 184.422C1370.79 190.463 1369.7 195.854 1368.97 200.594L1364.28 233.25C1364.02 235.229 1363.81 236.896 1363.65 238.25L1363.11 242.547C1362.8 245.203 1362.64 247.078 1362.64 248.172C1362.64 250.411 1363.26 251.531 1364.51 251.531C1368.94 251.531 1373.45 246.635 1378.03 236.844C1379.44 237.677 1380.14 238.51 1380.14 239.344C1380.14 241.166 1377.87 244.838 1373.34 250.359C1367.25 257.859 1361.6 261.609 1356.39 261.609C1352.59 261.609 1350.69 259.057 1350.69 253.953C1350.69 252.338 1350.87 250.177 1351.23 247.469L1352.09 241.219C1352.56 237.833 1352.87 235.541 1353.03 234.344L1353.81 228.875Z" fill-rule="evenodd"/>
<path clip-path="url(#TextBounds)" d="M1411.47 195.906L1407.56 230.437C1406.88 236.635 1406.55 241.219 1406.55 244.187C1406.55 250.073 1408.55 253.015 1412.56 253.015C1416.88 253.015 1421.36 249.474 1426 242.39C1426.78 243.38 1427.17 244.265 1427.17 245.047C1427.17 247.963 1424.61 251.453 1419.47 255.515C1414.34 259.578 1409.93 261.609 1406.23 261.609C1398.84 261.609 1395.14 256.87 1395.14 247.39C1395.14 243.901 1395.58 238.25 1396.47 230.437L1400.3 195.906L1383.81 195.906L1392.95 186.844L1401.31 186.844L1402.95 172.625L1414.44 168.797L1412.48 186.844L1457.33 186.844L1452.17 233.25L1451.62 238.25C1451.15 242.677 1450.92 245.802 1450.92 247.625C1450.92 250.229 1451.6 251.531 1452.95 251.531C1457.38 251.531 1461.73 246.635 1466 236.844C1467.46 237.677 1468.19 238.536 1468.19 239.422C1468.19 241.245 1466.05 244.89 1461.78 250.359C1455.89 257.859 1450.37 261.609 1445.22 261.609C1441.21 261.609 1439.2 258.849 1439.2 253.328C1439.2 251.297 1439.54 247.26 1440.22 241.219L1440.92 234.344L1445.22 195.906L1411.47 195.906ZM1451 174.734L1457.56 158.562C1463.39 156.166 1468.19 152.859 1471.94 148.64C1472.51 149.37 1472.8 150.125 1472.8 150.906C1472.8 157.885 1465.53 165.828 1451 174.734Z" fill-rule="evenodd"/>
<path clip-path="url(#TextBounds)" d="M1493.5 261.609C1481.78 261.609 1475.92 253.849 1475.92 238.328C1475.92 225.828 1480.5 213.784 1489.67 202.195C1498.84 190.607 1508.34 184.812 1518.19 184.812C1530.06 184.812 1536 192.573 1536 208.094C1536 220.646 1531.41 232.703 1522.25 244.265C1513.08 255.828 1503.5 261.609 1493.5 261.609ZM1502.95 252.859C1508.94 252.859 1513.95 249.526 1517.99 242.859C1522.03 236.192 1524.05 227.885 1524.05 217.937C1524.05 201.687 1518.99 193.562 1508.89 193.562C1502.95 193.562 1497.96 196.909 1493.93 203.601C1489.89 210.294 1487.87 218.588 1487.87 228.484C1487.87 244.734 1492.9 252.859 1502.95 252.859Z" fill-rule="evenodd"/>
<path clip-path="url(#TextBounds)" d="M1565.84 256.844L1554.2 261.609L1554.44 259.422L1555.06 253.64L1555.69 248.172L1559.75 211.922L1560.22 207.781C1560.53 204.552 1560.69 201.948 1560.69 199.969C1560.69 196.635 1559.85 194.969 1558.19 194.969C1554.28 194.969 1550.09 199.396 1545.61 208.25C1544.41 207.26 1543.81 206.401 1543.81 205.672C1543.81 202.547 1546.66 198.289 1552.37 192.898C1558.07 187.508 1562.56 184.812 1565.84 184.812C1570.32 184.812 1572.56 187.677 1572.56 193.406C1572.56 194.864 1572.43 196.817 1572.17 199.265L1571.55 205.594L1570.92 210.906L1570.3 216.453C1576.44 207.286 1583.17 199.721 1590.49 193.758C1597.81 187.794 1604.05 184.812 1609.2 184.812C1614.25 184.812 1616.78 188.328 1616.78 195.359C1616.78 197.495 1616.49 200.698 1615.92 204.969L1611.7 234.109C1610.87 239.942 1610.45 244.552 1610.45 247.937C1610.45 250.646 1611.18 252 1612.64 252C1616.23 252 1620.66 247.208 1625.92 237.625C1627.17 238.406 1627.8 239.213 1627.8 240.047C1627.8 243.432 1624.89 247.872 1619.08 253.367C1613.28 258.862 1608.55 261.609 1604.9 261.609C1600.84 261.609 1598.81 258.692 1598.81 252.859C1598.81 248.588 1599.36 242.677 1600.45 235.125L1603.19 216.219C1604.07 210.073 1604.51 205.203 1604.51 201.609C1604.51 197.495 1603.08 195.437 1600.22 195.437C1593.55 195.437 1586.79 199.956 1579.94 208.992C1573.09 218.028 1569.1 227.729 1567.95 238.094L1565.84 256.844Z" fill-rule="evenodd"/>
<path clip-path="url(#TextBounds)" d="M1630.14 257.39L1640.92 248.562C1644.98 252.885 1650.09 255.047 1656.23 255.047C1663.73 255.047 1667.48 251.427 1667.48 244.187C1667.48 240.177 1664.05 234.578 1657.17 227.39L1652.72 222.781C1646.21 215.958 1642.95 210.437 1642.95 206.219C1642.95 200.177 1645.57 195.099 1650.8 190.984C1656.04 186.87 1662.48 184.812 1670.14 184.812C1674.31 184.812 1678.86 185.594 1683.81 187.156L1674.44 195.828C1670.48 192.859 1666.08 191.375 1661.23 191.375C1655.56 191.375 1652.72 193.745 1652.72 198.484C1652.72 201.87 1655.87 206.844 1662.17 213.406L1667.01 218.562C1674.2 226.062 1677.8 232.104 1677.8 236.687C1677.8 243.25 1674.64 249.044 1668.34 254.07C1662.04 259.096 1654.77 261.609 1646.55 261.609C1640.71 261.609 1635.24 260.203 1630.14 257.39Z" fill-rule="evenodd"/>
<path clip-path="url(#TextBounds)" d="M1753.65 261.375C1753.65 249.291 1752.8 237.807 1751.08 226.922L1748.5 210.359C1747.04 200.932 1744.54 196.088 1741 195.828C1737.04 195.515 1734.28 199.448 1732.72 207.625C1731.05 207.156 1730.22 206.114 1730.22 204.5C1730.22 200.541 1732.08 196.271 1735.8 191.687C1739.53 187.104 1742.95 184.812 1746.08 184.812C1750.66 184.812 1754.27 188.588 1756.9 196.14C1759.53 203.692 1761.78 216.661 1763.65 235.047L1764.12 239.812C1773.29 222.989 1780.14 207.625 1784.67 193.719L1793.97 184.812C1794.59 191.844 1795.19 197.286 1795.76 201.14L1797.64 213.64L1798.97 222.39L1802.4 242.39L1804.28 239.344C1816.31 219.656 1822.33 207.026 1822.33 201.453C1822.33 198.432 1820.74 195.854 1817.56 193.719L1827.01 184.812C1830.87 186.948 1832.8 189.786 1832.8 193.328C1832.8 197.599 1829.83 204.656 1823.89 214.5L1819.12 222.39L1813.26 232.625C1809.05 239.969 1805.97 246.505 1804.05 252.234L1794.67 261.609C1793.94 252.234 1792.66 242.364 1790.84 232L1789.51 224.656L1786.15 206.375L1782.48 213.094C1775.82 225.281 1770.19 237.755 1765.61 250.515L1753.65 261.375Z" fill-rule="evenodd"/>
<path clip-path="url(#TextBounds)" d="M1874.67 236.844C1876.08 237.677 1876.78 238.484 1876.78 239.265C1876.78 241.14 1874.51 244.838 1869.98 250.359C1863.89 257.859 1858.24 261.609 1853.03 261.609C1849.23 261.609 1847.33 259.083 1847.33 254.031C1847.33 251.896 1848.11 245.333 1849.67 234.344L1852.72 213.094L1853.5 207.703L1854.12 203.406C1854.38 201.583 1854.51 200.047 1854.51 198.797C1854.51 196.192 1853.78 194.89 1852.33 194.89C1848.26 194.89 1843.89 199.37 1839.2 208.328C1838.21 207.442 1837.72 206.557 1837.72 205.672C1837.72 202.495 1840.65 198.224 1846.51 192.859C1852.37 187.495 1857.04 184.812 1860.53 184.812C1864.44 184.812 1866.39 187.521 1866.39 192.937C1866.39 193.979 1866.18 196.114 1865.76 199.344L1865.06 204.578C1865.01 204.995 1864.72 207.104 1864.2 210.906L1861 233.25L1860.22 238.25C1859.54 243.198 1859.2 246.505 1859.2 248.172C1859.2 250.411 1859.85 251.531 1861.15 251.531C1865.53 251.531 1870.03 246.635 1874.67 236.844ZM1858.97 174.734L1865.53 158.562C1871.36 156.166 1876.15 152.859 1879.9 148.64C1880.43 149.37 1880.69 150.125 1880.69 150.906C1880.69 157.885 1873.45 165.828 1858.97 174.734Z" fill-rule="evenodd"/>
<path clip-path="url(#TextBounds)" d="M1942.4 195.906L1908.65 195.906L1904.75 230.437C1904.07 236.635 1903.73 241.219 1903.73 244.187C1903.73 250.073 1905.74 253.015 1909.75 253.015C1914.07 253.015 1918.55 249.474 1923.19 242.39C1923.97 243.38 1924.36 244.265 1924.36 245.047C1924.36 247.963 1921.79 251.453 1916.66 255.515C1911.53 259.578 1907.12 261.609 1903.42 261.609C1896.02 261.609 1892.33 256.87 1892.33 247.39C1892.33 243.901 1892.77 238.25 1893.65 230.437L1897.48 195.906L1881 195.906L1890.14 186.844L1898.5 186.844L1900.14 172.625L1911.62 168.797L1909.67 186.844L1943.42 186.844C1945.24 168.823 1949.72 154.786 1956.86 144.734C1968.06 129.057 1981.18 121.219 1996.23 121.219C1998.78 121.219 2001.28 121.505 2003.73 122.078L1992.25 133.328C1989.28 132.442 1986.49 132 1983.89 132C1968.37 132 1959.25 144.083 1956.55 168.25L1951.23 216.453C1957.33 207.286 1964.03 199.721 1971.35 193.758C1978.67 187.794 1984.9 184.812 1990.06 184.812C1995.16 184.812 1997.72 188.354 1997.72 195.437C1997.72 197.469 1997.4 200.646 1996.78 204.969L1992.56 234.109C1991.73 239.89 1991.31 244.526 1991.31 248.015C1991.31 250.672 1992.07 252 1993.58 252C1997.22 252 2001.62 247.208 2006.78 237.625C2008.03 238.406 2008.65 239.213 2008.65 240.047C2008.65 243.484 2005.75 247.937 1999.94 253.406C1994.14 258.875 1989.41 261.609 1985.76 261.609C1981.7 261.609 1979.67 258.692 1979.67 252.859C1979.67 248.588 1980.22 242.677 1981.31 235.125L1984.05 216.219C1984.93 210.021 1985.37 205.125 1985.37 201.531C1985.37 197.469 1983.94 195.437 1981.08 195.437C1974.41 195.437 1967.65 199.969 1960.8 209.031C1953.95 218.094 1949.96 227.781 1948.81 238.094L1946.7 256.844L1935.06 261.609L1935.3 259.422L1935.92 253.64L1936.55 248.172L1942.4 195.906Z" fill-rule="evenodd"/>
<path clip-path="url(#TextBounds)" d="M2114.83 186.844L2105.92 197.547C2101.75 195.828 2097.77 194.969 2093.97 194.969C2087.14 194.969 2081.77 197.859 2077.83 203.64C2073.9 209.422 2071.94 217.338 2071.94 227.39C2071.94 234.474 2073.36 240.177 2076.19 244.5C2079.03 248.823 2082.74 250.984 2087.33 250.984C2095.09 250.984 2101.18 245.906 2105.61 235.75C2106.75 237 2107.33 238.172 2107.33 239.265C2107.33 243.588 2103.95 248.393 2097.21 253.679C2090.46 258.966 2084.28 261.609 2078.65 261.609C2073.24 261.609 2068.8 259.435 2065.33 255.086C2061.87 250.737 2060.14 245.099 2060.14 238.172C2060.14 224.682 2064.72 212.416 2073.89 201.375C2083.06 190.333 2093.24 184.812 2104.44 184.812C2108.5 184.812 2111.96 185.489 2114.83 186.844Z" fill-rule="evenodd"/>
<path clip-path="url(#TextBounds)" d="M2147.17 217.703C2158.73 195.776 2170.11 184.812 2181.31 184.812C2184.23 184.812 2187.14 185.489 2190.06 186.844L2179.05 198.875C2177.38 197.937 2175.24 197.469 2172.64 197.469C2167.22 197.469 2161.51 201.857 2155.49 210.633C2149.47 219.409 2145.95 228.536 2144.9 238.015L2142.8 257.078L2131.23 260.984L2131.47 258.64L2132.01 253.562L2132.64 248.484L2136.7 211.297L2137.17 207.234C2137.53 204.161 2137.72 201.661 2137.72 199.734C2137.72 196.557 2136.83 194.969 2135.06 194.969C2130.89 194.969 2126.75 199.422 2122.64 208.328C2121.34 207.338 2120.71 206.323 2120.76 205.281C2120.92 202.104 2123.82 197.898 2129.47 192.664C2135.13 187.429 2139.59 184.812 2142.87 184.812C2147.3 184.812 2149.51 187.729 2149.51 193.562C2149.51 194.969 2149.38 196.87 2149.12 199.265L2148.58 204.734L2147.87 211.297L2147.17 217.703Z" fill-rule="evenodd"/>
<path clip-path="url(#TextBounds)" d="M2233.42 234.734C2234.72 235.62 2235.37 236.661 2235.37 237.859C2235.37 239.474 2233.71 242.234 2230.37 246.14C2221.47 256.453 2212.66 261.609 2203.97 261.609C2198.65 261.609 2194.28 259.5 2190.84 255.281C2187.4 251.062 2185.69 245.672 2185.69 239.109C2185.69 227.234 2190.18 215.216 2199.16 203.054C2208.15 190.893 2217.04 184.812 2225.84 184.812C2232.2 184.812 2235.37 188.224 2235.37 195.047C2235.37 202.703 2231.66 210.177 2224.24 217.469C2216.82 224.76 2207.77 229.838 2197.09 232.703C2198.13 245.255 2203.08 251.531 2211.94 251.531C2220.69 251.531 2227.85 245.932 2233.42 234.734ZM2197.4 223.172C2198.91 223.692 2200.3 223.953 2201.55 223.953C2208 223.953 2213.65 221.974 2218.5 218.015C2223.34 214.057 2225.76 209.422 2225.76 204.109C2225.76 198.015 2222.66 194.969 2216.47 194.969C2211.99 194.969 2207.94 197.638 2204.32 202.976C2200.7 208.315 2198.39 215.047 2197.4 223.172Z" fill-rule="evenodd"/>
<path clip-path="url(#TextBounds)" d="M2293.97 228.562C2288.08 238.25 2281.61 246.179 2274.55 252.351C2267.5 258.523 2261.36 261.609 2256.15 261.609C2249.02 261.609 2245.45 255.854 2245.45 244.344C2245.45 228.51 2250.65 214.799 2261.04 203.211C2271.43 191.622 2283.73 185.828 2297.95 185.828C2303.37 185.828 2307.98 186.505 2311.78 187.859C2311.52 188.797 2311.36 189.37 2311.31 189.578L2310.37 193.719C2309.75 196.583 2309.41 198.25 2309.36 198.719L2304.36 233.25L2303.65 238.25C2302.98 243.198 2302.64 246.505 2302.64 248.172C2302.64 250.411 2303.29 251.531 2304.59 251.531C2308.97 251.531 2313.45 246.635 2318.03 236.844C2319.44 237.677 2320.14 238.51 2320.14 239.344C2320.14 241.166 2317.9 244.838 2313.42 250.359C2307.33 257.859 2301.68 261.609 2296.47 261.609C2292.66 261.609 2290.76 259.057 2290.76 253.953C2290.76 252.39 2290.95 250.229 2291.31 247.469L2292.09 241.219L2293.11 234.344L2293.97 228.562ZM2298.42 197.547C2293.68 194.89 2288.89 193.562 2284.05 193.562C2276.75 193.562 2270.63 198.015 2265.69 206.922C2260.74 215.828 2258.26 226.87 2258.26 240.047C2258.26 246.817 2260.27 250.203 2264.28 250.203C2268.91 250.203 2274.51 246.661 2281.08 239.578C2289.93 230.047 2295.3 218.849 2297.17 205.984L2298.42 197.547Z" fill-rule="evenodd"/>
<path clip-path="url(#TextBounds)" d="M2352.01 195.906L2348.11 230.437C2347.43 236.635 2347.09 241.219 2347.09 244.187C2347.09 250.073 2349.1 253.015 2353.11 253.015C2357.43 253.015 2361.91 249.474 2366.55 242.39C2367.33 243.38 2367.72 244.265 2367.72 245.047C2367.72 247.963 2365.15 251.453 2360.02 255.515C2354.89 259.578 2350.48 261.609 2346.78 261.609C2339.38 261.609 2335.69 256.87 2335.69 247.39C2335.69 243.901 2336.13 238.25 2337.01 230.437L2340.84 195.906L2324.36 195.906L2333.5 186.844L2341.86 186.844L2343.5 172.625L2354.98 168.797L2353.03 186.844L2397.87 186.844L2392.72 233.25L2392.17 238.25C2391.7 242.677 2391.47 245.802 2391.47 247.625C2391.47 250.229 2392.14 251.531 2393.5 251.531C2397.93 251.531 2402.27 246.635 2406.55 236.844C2408 237.677 2408.73 238.536 2408.73 239.422C2408.73 241.245 2406.6 244.89 2402.33 250.359C2396.44 257.859 2390.92 261.609 2385.76 261.609C2381.75 261.609 2379.75 258.849 2379.75 253.328C2379.75 251.297 2380.09 247.26 2380.76 241.219L2381.47 234.344L2385.76 195.906L2352.01 195.906ZM2391.55 174.734L2398.11 158.562C2403.94 156.166 2408.73 152.859 2412.48 148.64C2413.06 149.37 2413.34 150.125 2413.34 150.906C2413.34 157.885 2406.08 165.828 2391.55 174.734Z" fill-rule="evenodd"/>
<path clip-path="url(#TextBounds)" d="M2452.09 244.265C2466.62 223.953 2473.89 209.812 2473.89 201.844C2473.89 198.875 2472.38 196.531 2469.36 194.812L2479.12 184.812C2482.93 186.739 2484.83 189.812 2484.83 194.031C2484.83 199.239 2479.85 209.37 2469.9 224.422C2467.72 227.651 2466.18 229.995 2465.3 231.453L2463.34 234.812L2459.75 240.515C2457.77 243.64 2455.69 247.156 2453.5 251.062L2442.64 261.609C2440.66 244.838 2437.43 229.63 2432.95 215.984C2428.47 202.338 2424.46 195.515 2420.92 195.515C2416.96 195.515 2414.2 199.448 2412.64 207.312C2411.13 206.791 2410.37 205.932 2410.37 204.734C2410.37 200.776 2412.08 196.505 2415.49 191.922C2418.9 187.338 2422.12 184.969 2425.14 184.812C2436.44 184.239 2445.43 204.057 2452.09 244.265Z" fill-rule="evenodd"/>
<path clip-path="url(#TextBounds)" d="M2526.7 236.844C2528.11 237.677 2528.81 238.484 2528.81 239.265C2528.81 241.14 2526.55 244.838 2522.01 250.359C2515.92 257.859 2510.27 261.609 2505.06 261.609C2501.26 261.609 2499.36 259.083 2499.36 254.031C2499.36 251.896 2500.14 245.333 2501.7 234.344L2504.75 213.094L2505.53 207.703L2506.15 203.406C2506.41 201.583 2506.55 200.047 2506.55 198.797C2506.55 196.192 2505.82 194.89 2504.36 194.89C2500.3 194.89 2495.92 199.37 2491.23 208.328C2490.24 207.442 2489.75 206.557 2489.75 205.672C2489.75 202.495 2492.68 198.224 2498.54 192.859C2504.4 187.495 2509.07 184.812 2512.56 184.812C2516.47 184.812 2518.42 187.521 2518.42 192.937C2518.42 193.979 2518.21 196.114 2517.8 199.344L2517.09 204.578C2517.04 204.995 2516.75 207.104 2516.23 210.906L2513.03 233.25L2512.25 238.25C2511.57 243.198 2511.23 246.505 2511.23 248.172C2511.23 250.411 2511.88 251.531 2513.19 251.531C2517.56 251.531 2522.07 246.635 2526.7 236.844ZM2511 174.734L2517.56 158.562C2523.39 156.166 2528.19 152.859 2531.94 148.64C2532.46 149.37 2532.72 150.125 2532.72 150.906C2532.72 157.885 2525.48 165.828 2511 174.734Z" fill-rule="evenodd"/>
<path clip-path="url(#TextBounds)" d="M2560.69 195.906L2556.86 230.437C2556.13 236.635 2555.76 241.219 2555.76 244.187C2555.76 250.073 2557.8 253.015 2561.86 253.015C2566.18 253.015 2570.63 249.474 2575.22 242.39C2576 243.38 2576.39 244.265 2576.39 245.047C2576.39 247.963 2573.82 251.453 2568.69 255.515C2563.56 259.578 2559.18 261.609 2555.53 261.609C2548.13 261.609 2544.44 256.87 2544.44 247.39C2544.44 243.901 2544.85 238.25 2545.69 230.437L2549.59 195.906L2533.03 195.906L2542.17 186.844L2550.53 186.844L2552.17 172.625L2563.65 168.797L2561.7 186.844L2606.39 186.844L2606.39 190.594L2606.15 199.734L2606.23 210.281L2606.31 220.906L2606.55 229.187L2606.62 232.859C2606.62 243.276 2608.32 248.484 2611.7 248.484C2615.92 248.484 2621.15 243.653 2627.4 233.992C2633.65 224.331 2637.66 214.838 2639.44 205.515L2642.48 189.578L2656.39 184.734C2654.62 189.265 2652.8 196.192 2650.92 205.515L2640.45 257.937C2636.34 278.458 2629.98 293.614 2621.39 303.406C2608.52 317.989 2593.63 325.281 2576.7 325.281C2573.16 325.281 2569.18 324.5 2564.75 322.937L2574.36 312.39C2579.25 314.578 2584.36 315.672 2589.67 315.672C2600.5 315.672 2608.63 312.169 2614.05 305.164C2619.46 298.159 2623.99 285.255 2627.64 266.453L2634.98 228.484C2629.67 238.172 2624.15 246.114 2618.42 252.312C2612.69 258.51 2608 261.609 2604.36 261.609C2598.84 261.609 2596.08 256.349 2596.08 245.828L2595.69 235.125L2595.61 231.14L2595.37 222.703L2595.14 200.047L2595.14 195.906L2560.69 195.906Z" fill-rule="evenodd"/>
<path clip-path="url(#TextBounds)" d="M2757.56 228.562C2751.68 238.25 2745.2 246.179 2738.15 252.351C2731.09 258.523 2724.96 261.609 2719.75 261.609C2712.61 261.609 2709.05 255.854 2709.05 244.344C2709.05 228.51 2714.24 214.799 2724.63 203.211C2735.02 191.622 2747.33 185.828 2761.55 185.828C2766.96 185.828 2771.57 186.505 2775.37 187.859C2775.11 188.797 2774.96 189.37 2774.9 189.578L2773.97 193.719C2773.34 196.583 2773 198.25 2772.95 198.719L2767.95 233.25L2767.25 238.25C2766.57 243.198 2766.23 246.505 2766.23 248.172C2766.23 250.411 2766.88 251.531 2768.19 251.531C2772.56 251.531 2777.04 246.635 2781.62 236.844C2783.03 237.677 2783.73 238.51 2783.73 239.344C2783.73 241.166 2781.49 244.838 2777.01 250.359C2770.92 257.859 2765.27 261.609 2760.06 261.609C2756.26 261.609 2754.36 259.057 2754.36 253.953C2754.36 252.39 2754.54 250.229 2754.9 247.469L2755.69 241.219L2756.7 234.344L2757.56 228.562ZM2762.01 197.547C2757.27 194.89 2752.48 193.562 2747.64 193.562C2740.35 193.562 2734.23 198.015 2729.28 206.922C2724.33 215.828 2721.86 226.87 2721.86 240.047C2721.86 246.817 2723.86 250.203 2727.87 250.203C2732.51 250.203 2738.11 246.661 2744.67 239.578C2753.52 230.047 2758.89 218.849 2760.76 205.984L2762.01 197.547Z" fill-rule="evenodd"/>
<path clip-path="url(#TextBounds)" d="M2812.17 256.844L2800.53 261.609L2800.76 259.422L2801.39 253.64L2802.01 248.172L2806.08 211.922L2806.55 207.781C2806.86 204.552 2807.01 201.948 2807.01 199.969C2807.01 196.635 2806.18 194.969 2804.51 194.969C2800.61 194.969 2796.41 199.396 2791.94 208.25C2790.74 207.26 2790.14 206.401 2790.14 205.672C2790.14 202.547 2792.99 198.289 2798.69 192.898C2804.4 187.508 2808.89 184.812 2812.17 184.812C2816.65 184.812 2818.89 187.677 2818.89 193.406C2818.89 194.864 2818.76 196.817 2818.5 199.265L2817.87 205.594L2817.25 210.906L2816.62 216.453C2822.77 207.286 2829.5 199.721 2836.82 193.758C2844.14 187.794 2850.37 184.812 2855.53 184.812C2860.58 184.812 2863.11 188.328 2863.11 195.359C2863.11 197.495 2862.82 200.698 2862.25 204.969L2858.03 234.109C2857.2 239.942 2856.78 244.552 2856.78 247.937C2856.78 250.646 2857.51 252 2858.97 252C2862.56 252 2866.99 247.208 2872.25 237.625C2873.5 238.406 2874.12 239.213 2874.12 240.047C2874.12 243.432 2871.22 247.872 2865.41 253.367C2859.61 258.862 2854.88 261.609 2851.23 261.609C2847.17 261.609 2845.14 258.692 2845.14 252.859C2845.14 248.588 2845.69 242.677 2846.78 235.125L2849.51 216.219C2850.4 210.073 2850.84 205.203 2850.84 201.609C2850.84 197.495 2849.41 195.437 2846.55 195.437C2839.88 195.437 2833.12 199.956 2826.27 208.992C2819.42 218.028 2815.43 227.729 2814.28 238.094L2812.17 256.844Z" fill-rule="evenodd"/>
<path clip-path="url(#TextBounds)" d="M2933.65 185.984L2934.44 179.265C2936.31 162.599 2942 148.745 2951.51 137.703C2961.01 126.661 2971.96 121.14 2984.36 121.14C2987.33 121.14 2989.88 121.401 2992.01 121.922L2980.92 133.25C2978.47 132.416 2975.58 132 2972.25 132C2964.44 132 2958.6 134.734 2954.75 140.203C2950.89 145.672 2948.24 154.995 2946.78 168.172L2939.51 233.25L2938.97 238.25C2938.5 242.677 2938.26 245.828 2938.26 247.703C2938.26 250.255 2938.94 251.531 2940.3 251.531C2944.62 251.531 2948.97 246.635 2953.34 236.844C2954.75 237.677 2955.45 238.51 2955.45 239.344C2955.45 241.219 2953.34 244.89 2949.12 250.359C2943.24 257.859 2937.72 261.609 2932.56 261.609C2928.55 261.609 2926.55 258.849 2926.55 253.328C2926.55 251.297 2926.86 247.26 2927.48 241.219L2928.26 234.344L2928.89 228.562C2925.35 236.375 2919.61 243.836 2911.66 250.945C2903.72 258.054 2897.17 261.609 2892.01 261.609C2884.67 261.609 2881 255.854 2881 244.344C2881 229.291 2886.08 215.776 2896.23 203.797C2906.39 191.817 2917.85 185.828 2930.61 185.828C2931.23 185.828 2932.25 185.88 2933.65 185.984ZM2932.4 197.156C2928.03 194.76 2924.02 193.562 2920.37 193.562C2912.66 193.562 2906.31 197.937 2901.31 206.687C2896.31 215.437 2893.81 226.557 2893.81 240.047C2893.81 246.817 2895.79 250.203 2899.75 250.203C2904.54 250.203 2910.16 246.661 2916.62 239.578C2925.01 230.463 2929.96 219.265 2931.47 205.984L2932.4 197.156Z" fill-rule="evenodd"/>
<path clip-path="url(#TextBounds)" d="M3062.4 186.844L3053.5 197.547C3049.33 195.828 3045.35 194.969 3041.55 194.969C3034.72 194.969 3029.34 197.859 3025.41 203.64C3021.48 209.422 3019.51 217.338 3019.51 227.39C3019.51 234.474 3020.93 240.177 3023.77 244.5C3026.61 248.823 3030.32 250.984 3034.9 250.984C3042.66 250.984 3048.76 245.906 3053.19 235.75C3054.33 237 3054.9 238.172 3054.9 239.265C3054.9 243.588 3051.53 248.393 3044.79 253.679C3038.04 258.966 3031.86 261.609 3026.23 261.609C3020.82 261.609 3016.38 259.435 3012.91 255.086C3009.45 250.737 3007.72 245.099 3007.72 238.172C3007.72 224.682 3012.3 212.416 3021.47 201.375C3030.63 190.333 3040.82 184.812 3052.01 184.812C3056.08 184.812 3059.54 185.489 3062.4 186.844Z" fill-rule="evenodd"/>
<path clip-path="url(#TextBounds)" d="M3086.55 261.609C3074.83 261.609 3068.97 253.849 3068.97 238.328C3068.97 225.828 3073.55 213.784 3082.72 202.195C3091.88 190.607 3101.39 184.812 3111.23 184.812C3123.11 184.812 3129.05 192.573 3129.05 208.094C3129.05 220.646 3124.46 232.703 3115.3 244.265C3106.13 255.828 3096.55 261.609 3086.55 261.609ZM3096 252.859C3101.99 252.859 3107 249.526 3111.04 242.859C3115.07 236.192 3117.09 227.885 3117.09 217.937C3117.09 201.687 3112.04 193.562 3101.94 193.562C3096 193.562 3091.01 196.909 3086.97 203.601C3082.94 210.294 3080.92 218.588 3080.92 228.484C3080.92 244.734 3085.95 252.859 3096 252.859Z" fill-rule="evenodd"/>
<path clip-path="url(#TextBounds)" d="M3190.06 185.984L3190.84 179.265C3192.72 162.599 3198.41 148.745 3207.91 137.703C3217.42 126.661 3228.37 121.14 3240.76 121.14C3243.73 121.14 3246.28 121.401 3248.42 121.922L3237.33 133.25C3234.88 132.416 3231.99 132 3228.65 132C3220.84 132 3215.01 134.734 3211.15 140.203C3207.3 145.672 3204.64 154.995 3203.19 168.172L3195.92 233.25L3195.37 238.25C3194.9 242.677 3194.67 245.828 3194.67 247.703C3194.67 250.255 3195.35 251.531 3196.7 251.531C3201.02 251.531 3205.37 246.635 3209.75 236.844C3211.15 237.677 3211.86 238.51 3211.86 239.344C3211.86 241.219 3209.75 244.89 3205.53 250.359C3199.64 257.859 3194.12 261.609 3188.97 261.609C3184.96 261.609 3182.95 258.849 3182.95 253.328C3182.95 251.297 3183.26 247.26 3183.89 241.219L3184.67 234.344L3185.3 228.562C3181.75 236.375 3176.01 243.836 3168.07 250.945C3160.13 258.054 3153.58 261.609 3148.42 261.609C3141.08 261.609 3137.4 255.854 3137.4 244.344C3137.4 229.291 3142.48 215.776 3152.64 203.797C3162.8 191.817 3174.25 185.828 3187.01 185.828C3187.64 185.828 3188.65 185.88 3190.06 185.984ZM3188.81 197.156C3184.44 194.76 3180.43 193.562 3176.78 193.562C3169.07 193.562 3162.72 197.937 3157.72 206.687C3152.72 215.437 3150.22 226.557 3150.22 240.047C3150.22 246.817 3152.2 250.203 3156.15 250.203C3160.95 250.203 3166.57 246.661 3173.03 239.578C3181.41 230.463 3186.36 219.265 3187.87 205.984L3188.81 197.156Z" fill-rule="evenodd"/>
<path clip-path="url(#TextBounds)" d="M3267.4 234.734C3268.71 235.62 3269.36 236.661 3269.36 237.859C3269.36 239.474 3267.69 242.234 3264.36 246.14C3255.45 256.453 3246.65 261.609 3237.95 261.609C3232.64 261.609 3228.26 259.5 3224.83 255.281C3221.39 251.062 3219.67 245.672 3219.67 239.109C3219.67 227.234 3224.16 215.216 3233.15 203.054C3242.13 190.893 3251.02 184.812 3259.83 184.812C3266.18 184.812 3269.36 188.224 3269.36 195.047C3269.36 202.703 3265.65 210.177 3258.22 217.469C3250.8 224.76 3241.75 229.838 3231.08 232.703C3232.12 245.255 3237.07 251.531 3245.92 251.531C3254.67 251.531 3261.83 245.932 3267.4 234.734ZM3231.39 223.172C3232.9 223.692 3234.28 223.953 3235.53 223.953C3241.99 223.953 3247.64 221.974 3252.48 218.015C3257.33 214.057 3259.75 209.422 3259.75 204.109C3259.75 198.015 3256.65 194.969 3250.45 194.969C3245.97 194.969 3241.92 197.638 3238.3 202.976C3234.68 208.315 3232.38 215.047 3231.39 223.172Z" fill-rule="evenodd"/>
<path clip-path="url(#TextBounds)" d="M3287.8 195.359L3285.76 193.172C3293.73 187.39 3297.72 181.062 3297.72 174.187C3297.72 168.458 3294.59 163.51 3288.34 159.344L3299.28 148.484C3305.69 153.224 3308.89 158.823 3308.89 165.281C3308.89 174.552 3301.86 184.578 3287.8 195.359ZM3315.61 195.359L3313.58 193.172C3321.6 187.39 3325.61 181.062 3325.61 174.187C3325.61 168.458 3322.46 163.51 3316.15 159.344L3327.09 148.484C3333.5 153.224 3336.7 158.823 3336.7 165.281C3336.7 174.552 3329.67 184.578 3315.61 195.359Z" fill-rule="evenodd"/>
</g>
</g>
</svg>
